<svg width="148" height="40" viewBox="0 0 148 40" fill="none" xmlns="http://www.w3.org/2000/svg">
<path d="M51.1163 21.0479V30.0684C51.1163 31.7252 52.4664 32.97 54.1231 32.97H63.1436C64.8034 32.97 66.1505 34.3171 66.1505 35.9768C66.1505 37.6366 64.8034 38.9837 63.1436 38.9837H54.1231C49.1498 38.9837 45.1026 35.0417 45.1026 30.0684V21.0479C45.1026 16.0746 49.1498 11.9221 54.1231 11.9221H63.1436C64.8034 11.9221 66.1505 13.2692 66.1505 14.929C66.1505 16.5887 64.8034 17.9358 63.1436 17.9358H54.1231C52.4664 17.9358 51.1163 19.3911 51.1163 21.0479ZM132.301 29.9632H138.315C143.288 29.9632 147.335 25.916 147.335 20.9426C147.335 15.9693 143.288 11.9221 138.315 11.9221H132.301C127.328 11.9221 123.28 16.0204 123.28 20.9968V21.0479V30.0684C123.28 35.0417 127.328 38.9837 132.301 38.9837H141.322C142.981 38.9837 144.328 37.6366 144.328 35.9768C144.328 34.3171 142.981 32.97 141.322 32.97H132.301C130.644 32.97 129.294 31.7282 129.294 30.0684V29.5512C130.235 29.885 131.246 29.9632 132.301 29.9632ZM132.301 17.9358H138.315C139.971 17.9358 141.322 19.2859 141.322 20.9426C141.322 22.5994 139.971 23.9495 138.315 23.9495H132.301C130.644 23.9495 129.294 22.5994 129.294 20.9426C129.294 19.2859 130.644 17.9358 132.301 17.9358ZM117.267 0C115.607 0 114.26 1.34706 114.26 3.00684V12.5445C113.319 12.2108 112.309 11.9221 111.253 11.9221H105.239C100.266 11.9221 96.2189 16.0746 96.2189 21.0479V30.0684C96.2189 35.0417 100.266 38.9837 105.239 38.9837H111.253C116.226 38.9837 120.274 35.0417 120.274 30.0684V21.0479V3.00684C120.274 1.34706 118.927 0 117.267 0ZM114.26 29.9632C114.26 31.6229 112.913 32.97 111.253 32.97H105.239C103.58 32.97 102.233 31.6229 102.233 29.9632V20.9426C102.233 19.2829 103.58 17.9358 105.239 17.9358H111.253C112.913 17.9358 114.26 19.2829 114.26 20.9426V29.9632ZM84.1915 11.9221H78.1778C73.1955 11.9221 69.1573 15.9603 69.1573 20.9426V29.9632C69.1573 34.9455 73.1955 38.9837 78.1778 38.9837H84.1915C89.1739 38.9837 93.212 34.9455 93.212 29.9632V20.9426C93.212 15.9603 89.1739 11.9221 84.1915 11.9221ZM87.1984 29.9632C87.1984 31.6229 85.8513 32.97 84.1915 32.97H78.1778C76.5181 32.97 75.171 31.6229 75.171 29.9632V20.9426C75.171 19.2829 76.5181 17.9358 78.1778 17.9358H84.1915C85.8513 17.9358 87.1984 19.2829 87.1984 20.9426V29.9632Z" fill="black"/>
<path d="M15.0342 11.9221H9.02052C4.04721 11.9221 0 16.0204 0 20.9968V21.0479V30.0684C0 35.0417 4.04721 38.9837 9.02052 38.9837H18.041C19.7008 38.9837 21.0479 37.6366 21.0479 35.9768C21.0479 34.3171 19.7008 32.97 18.041 32.97H9.02052C7.36375 32.97 6.01368 31.7282 6.01368 30.0684V29.5512C6.95482 29.885 7.96512 29.9632 9.02052 29.9632H15.0342C20.0075 29.9632 24.0547 25.916 24.0547 20.9426C24.0547 15.9693 20.0075 11.9221 15.0342 11.9221ZM15.0342 23.9495H9.02052C7.36375 23.9495 6.01368 22.5994 6.01368 20.9426C6.01368 19.2859 7.36375 17.9358 9.02052 17.9358H15.0342C16.691 17.9358 18.041 19.2859 18.041 20.9426C18.041 22.5994 16.691 23.9495 15.0342 23.9495Z" fill="black"/>
<path d="M26.1084 39.7986C25.3928 39.3836 25.1432 38.4605 25.5581 37.7449L40.5923 11.7057C41.0073 10.99 41.9304 10.7405 42.646 11.1554C43.3616 11.5704 43.6112 12.4935 43.1963 13.2091L28.1621 39.2483C27.7501 39.964 26.827 40.2135 26.1084 39.7986Z" fill="#33CC00"/>
</svg>
